<?xml version="1.0" encoding="UTF-8"?>
<svg id="Capa_1" data-name="Capa 1" xmlns="http://www.w3.org/2000/svg" viewBox="0 0 1500 786">
  <defs>
    <style>
      .cls-1 {
        stroke-width: 0px;
      }
    </style>
  </defs>
  <path class="cls-1" d="m92.92,408.34c5.7,0,10.85-.22,15.95.19,1.04.08,2.68,2.53,2.71,3.92.24,10.66.42,21.34.1,31.99-1.21,40.25,31.81,71.04,69.91,70.64,62.15-.65,124.32-.35,186.48-.39,252.47-.16,504.94-.34,757.41-.39,65.65-.01,131.3.45,196.95.61,33.9.08,61.79-22.49,68.12-55.8,1.63-8.57.98-17.59,1.17-26.41.17-7.81.03-15.63.03-24.28,5.87,0,11.44-.08,17,.11.66.02,1.86,1.54,1.83,2.33-.81,20.39,3.23,41.19-2.94,61.1-10.14,32.68-32.6,52.92-65.86,60.68-7.37,1.72-15.19,2.07-22.8,2.06-305.8-.03-611.61-.19-917.41-.27-74.99-.02-149.99.41-224.98.15-38.6-.14-74.24-29.9-82.33-67.59-.66-3.07-1.24-6.23-1.27-9.35-.13-16.15-.06-32.3-.06-49.28Z"/>
  <path class="cls-1" d="m1236.17,449.19c7.19-8.65,14.2-17.06,21.2-25.48,6.8-8.18,13.55-16.4,20.41-24.52,2.04-2.41.34-3.47-1.25-4.77-7.2-5.88-14.38-11.79-21.95-17.99,20.77-11.54,41.15-22.86,61.63-34.24-9.15-9.94-40.32-14.92-62.54,1.44-23.27,17.13-32.71,52.12-11.6,80.46-5.16,5.05-10.31,10.1-15.46,15.14-23.5-26.12-26.84-72.92,4.47-105.37,27.48-28.48,77.32-30.6,106.61-4.34-4.22,5.18-8.43,10.42-12.73,15.59-9.25,11.12-18.47,22.25-27.86,33.25-2.3,2.7-2,4.24.76,6.36,7.11,5.46,13.99,11.22,21.66,17.43-20.82,11.58-41.24,22.94-61.83,34.4,12.62,11.35,43.55,14.38,64.6-3.19,24.63-20.58,28.67-54.78,9.44-78.72,5.19-5.03,10.39-10.06,15.58-15.08,21.71,22.75,28.76,69.61-3.11,103.56-28.08,29.91-75.3,33.41-108.03,6.08Z"/>
  <path class="cls-1" d="m410.28,249.48v18.46c-2.03,0-3.68,0-5.33,0-74.15.13-148.3.52-222.44.29-31.91-.1-56.99,18.73-66.27,44.51-2.75,7.66-3.94,16.14-4.38,24.32-.7,12.96-.15,25.99-.15,38.99,0,1.46-.16,2.91-.26,4.58h-18.62v-8.62c0-12.67.06-25.33-.01-38-.18-29.7,13.36-52.26,36.72-69.32,14.47-10.57,30.79-15.43,49.03-15.34,75,.34,149.99.14,224.99.14h6.73Z"/>
  <path class="cls-1" d="m1092.99,267.96v-18.11c1.77-.13,3.51-.36,5.25-.36,77.82-.02,155.65-.28,233.47.16,21.66.12,39.68,10.36,54.55,25.63,16.48,16.91,25.05,37.23,24.48,61.19-.31,12.82-.06,25.66-.06,38.49,0,1.79,0,3.57,0,5.64h-19.01c0-2.43.03-4.7,0-6.97-.21-14.98.18-30-.79-44.92-1.74-26.68-24.33-52.34-50.67-58.07-6.77-1.47-13.84-2.17-20.77-2.2-74.14-.28-148.28-.35-222.43-.48-1.14,0-2.28,0-4.02,0Z"/>
  <path class="cls-1" d="m1070.5,267.79c-35.1,0-69.75.05-104.4-.01-61.11-.11-122.23-.3-183.34-.44-5.64-.01-11.29-.06-16.92.1-3.19.09-5.07-.45-4.63-4.38.37-3.28-.39-6.69.06-9.95.18-1.32,2.08-2.65,3.49-3.48.86-.51,2.28-.1,3.44-.1,98.63,0,197.25,0,295.88,0h6.42v18.26Z"/>
  <path class="cls-1" d="m432.2,267.9c0-5.62-.11-10.74.11-15.85.04-.86,1.4-2.08,2.37-2.37,1.38-.42,2.97-.15,4.47-.15,98.62,0,197.25,0,295.87,0q7,0,7,7.06,0,10.75-10.69,10.75c-97.41.18-194.81.37-292.22.56-2.12,0-4.24,0-6.92,0Z"/>
  <path class="cls-1" d="m320.12,469.4c0-6.39-.22-12.38.16-18.33.09-1.34,2.02-3.07,3.5-3.73,14.38-6.4,20.54-21.97,13.86-36.13-3.12-6.6-8.8-10.73-15.28-13.71-10.22-4.7-20.82-8.67-30.7-13.99-17-9.16-24.1-24.13-20.12-42.92,2.52-11.91,10.01-20.92,21.09-26.28,4.83-2.34,10.21-3.56,15.96-5.49v21.86c-7.05,2.27-12.73,6.35-14.59,14.07-2.28,9.48,2.44,17.51,13.14,22.37,10.85,4.93,22.24,8.87,32.61,14.64,19.64,10.94,26.71,28.48,22.01,51.25-4.08,19.75-20.08,33.92-41.63,36.39Z"/>
  <path class="cls-1" d="m628.1,428.31c19.7-41.78,39.33-83.39,59.27-125.67,3.41,7.84,6.67,14.88,9.47,22.1.65,1.67.22,4.19-.57,5.92-10.66,23.56-21.49,47.06-32.25,70.58-.74,1.61-1.3,3.3-2.3,5.84,9.09,0,17.53.45,25.89-.15,6.23-.45,9.73,1.29,11.47,7.5,1.28,4.59,3.69,8.87,5.84,13.87h-76.82Z"/>
  <path class="cls-1" d="m1121.9,465.67v-155.04h22.34c.11,1.39.33,2.83.34,4.28.03,48.97.07,97.94-.04,146.9,0,1.29-1.52,3.65-2.42,3.69-6.61.32-13.23.17-20.21.17Z"/>
  <path class="cls-1" d="m1040.38,381.31c10.4-.62,19.43-3.1,24.99-12.01,9.88-15.84.81-34.64-18.44-36.9-11.82-1.39-23.9-.64-35.86-.83-2.16-.04-4.32,0-6.91,0v-21.21c17.92.87,35.83-1.68,53.6,2.54,23.32,5.54,34.96,26.84,33.03,47.98-2.57,28.13-27.27,42.24-50.41,40.8v-20.36Z"/>
  <path class="cls-1" d="m818.16,402.62v-19.56c6.42-2.37,12.74-3.94,18.29-6.93,8-4.3,10.52-12.14,10.25-20.77-.28-9.04-4.38-16.3-12.79-19.75-5.39-2.21-11.51-3.31-17.36-3.58-11.44-.54-22.93-.16-34.86-.16v-19.81c.53-.4.78-.77,1.03-.76,15.29.15,30.67-.64,45.86.74,24.16,2.19,40.22,21.08,40.1,45.22-.12,23.17-17.34,41.93-40.89,44.52-3.11.34-6.23.54-9.62.83Z"/>
  <path class="cls-1" d="m496.01,332.36v-20.03c.51-.29.8-.6,1.08-.59,16.46.38,33.14-.75,49.33,1.54,26.3,3.72,40.03,27.33,35.82,51.59-3.61,20.83-17.11,33.38-38.3,37-2.44.42-4.89.82-7.36,1.06-1.27.12-2.57-.15-3.98-.25v-19.55c5.17-1.53,10.1-2.47,14.58-4.42,10.19-4.42,15.19-13.98,13.75-25.13-1.35-10.46-8.51-18.61-19.41-19.72-12.38-1.26-24.9-1.07-37.36-1.47-2.63-.09-5.27-.01-8.15-.01Z"/>
  <path class="cls-1" d="m495.85,466.76v-120.58h22.8c0,1.61,0,3.22,0,4.82,0,36.83-.08,73.65.07,110.48.02,4.1-1.02,5.61-5.26,5.36-5.76-.34-11.56-.08-17.61-.08Z"/>
  <path class="cls-1" d="m1026.67,465.76h-22.53v-120.67c6.77,0,13.69-.15,20.57.22.74.04,1.88,3.07,1.89,4.73.12,17.65.05,35.3.04,52.95,0,19.65.01,39.3.02,58.95,0,1.13,0,2.26,0,3.82Z"/>
  <path class="cls-1" d="m415.49,347.02h22.23v119.59h-22.23v-119.59Z"/>
  <path class="cls-1" d="m803.82,465.91h-22.59c0-10.1-.05-19.98.01-29.85.05-8.46.3-16.92.34-25.38.06-14.93.06-29.86.01-44.79-.02-5.48-.18-10.97-.41-16.45-.12-2.87.75-4.34,3.92-4.23,5.15.17,10.31.05,15.47.06,2.52,0,3.83.8,3.82,3.82-.11,38.6-.09,77.19-.11,115.79,0,.14-.13.29-.47,1.03Z"/>
  <path class="cls-1" d="m760.78,466.19c-7.84,0-14.98.15-22.1-.14-1.31-.05-3.14-1.62-3.72-2.94-9.73-21.95-19.28-43.98-28.9-65.98-3.65-8.35-7.5-16.61-10.95-25.04-.74-1.81-.75-4.46,0-6.26,3.12-7.46,6.66-14.73,10.34-22.72,18.53,41.21,36.79,81.84,55.32,123.07Z"/>
  <path class="cls-1" d="m473.95,312.05v20.56h-94.3v-20.56h94.3Z"/>
  <path class="cls-1" d="m185.66,432.01h-22.47v-84.44h22.47v84.44Z"/>
  <path class="cls-1" d="m893.69,431v-84.8h22.72c0,4.35,0,8.77,0,13.19,0,22.11-.1,44.23.06,66.34.03,4.08-1.05,5.62-5.3,5.36-5.61-.35-11.27-.09-17.48-.09Z"/>
  <path class="cls-1" d="m978.69,444.44v21.21h-84.8v-21.21h84.8Z"/>
  <path class="cls-1" d="m248.03,445.42v21.42h-85.05c0-6.25-.15-12.53.18-18.78.04-.84,2.51-2.21,3.86-2.23,14.99-.19,29.97-.15,44.96-.21,9.99-.04,19.98-.13,29.97-.2,1.94-.01,3.88,0,6.07,0Z"/>
  <path class="cls-1" d="m978.68,310.94v20.63h-84.95v-20.63h84.95Z"/>
  <path class="cls-1" d="m162.99,312.3h85.05v20.61c-1.77.11-3.68.33-5.58.34-25.27.09-50.55.11-75.82.27-2.5.02-3.74-.42-3.69-3.17.11-5.8.03-11.61.03-18.05Z"/>
  <path class="cls-1" d="m1042.36,416.13c7.42-1.55,14.51-3.02,22.2-4.63,12.84,17.49,26.02,35.46,39.87,54.34-9.23,0-17.47.06-25.71-.07-1.14-.02-2.69-.7-3.32-1.59-11.01-15.57-21.91-31.22-32.81-46.86-.17-.24-.13-.64-.23-1.2Z"/>
  <path class="cls-1" d="m533.95,417.17c6.82-1.55,13.07-3.1,19.39-4.33,1.32-.26,3.51.19,4.21,1.13,12.62,16.93,25.06,33.99,37.53,51.03.15.2.02.61.02,1.56-8.43,0-16.86.06-25.28-.09-.92-.02-2.05-1.13-2.68-2.02-11.1-15.74-22.15-31.52-33.2-47.29Z"/>
  <path class="cls-1" d="m285.88,420.13c.62,2.98,1.14,5.7,1.76,8.4,2.14,9.27,7.86,15.46,16.43,19.34,1.16.52,2.45,2.25,2.5,3.46.26,5.96.12,11.94.12,17.9-20.3.57-41.3-19.82-43.05-44.18,7.25-1.6,14.59-3.23,22.25-4.92Z"/>
  <path class="cls-1" d="m1204.43,465.42h-45.89v-21.2h45.89v21.2Z"/>
  <path class="cls-1" d="m199.34,395.4v-20.89c1.41-.17,2.67-.45,3.94-.45,12.81-.05,25.62.05,38.42-.13,3.22-.04,4.62,1.05,4.59,4.21-.04,5.61-.01,11.23-.01,17.25h-46.94Z"/>
  <path class="cls-1" d="m976.64,372.86v21.51c-9.8,0-19.51,0-29.22,0-4.31,0-8.63-.08-12.93.09-3.02.11-4.66-.62-4.46-4.13.26-4.64-.13-9.32.21-13.95.09-1.23,1.82-3.35,2.82-3.37,14.42-.22,28.84-.15,43.59-.15Z"/>
  <path class="cls-1" d="m322.16,309.23c17.11,2.11,28.68,10.54,36.43,25.11-5.97,3.58-11.76,7.05-17.94,10.76-3.88-6.87-9.11-12.13-16.83-14.48-.77-.23-1.56-1.82-1.59-2.8-.14-6.09-.07-12.18-.07-18.59Z"/>
  <path class="cls-1" d="m645.69,442.4c-3.53,7.82-6.6,14.77-9.85,21.64-.49,1.03-1.82,2.33-2.79,2.36-7.41.2-14.83.11-22.87.11,3.68-7.99,6.86-15.06,10.25-22.03.47-.96,2-1.95,3.06-1.98,7.09-.17,14.19-.09,22.2-.09Z"/>
</svg>