<?xml version="1.0" encoding="UTF-8"?>
<svg id="Layer_1" data-name="Layer 1" xmlns="http://www.w3.org/2000/svg" viewBox="0 0 496.65 531.89">
  <path d="m496.65,281.06c-.2,2.25-.43,4.5-.59,6.76-1.54,21.33-5.41,42.23-11.99,62.59-5.39,16.67-12.38,32.68-20.53,48.18-9.02,17.16-19.87,33.09-32.59,47.72-20.86,24-44.95,44.01-73.25,58.71-18.46,9.59-37.88,16.54-58.23,20.89-13.12,2.8-26.38,4.53-39.77,5.4-20.3,1.32-40.35-.31-60.21-4.58-27.39-5.89-52.65-16.95-76.41-31.63-15.26-9.42-29.46-20.21-42.25-32.8-11.03-10.85-20.94-22.67-29.68-35.45-13.98-20.45-25.71-42.1-34.19-65.42-5.13-14.11-9.04-28.57-11.64-43.37-3.51-20.01-5.12-40.17-4.55-60.48.32-11.51,1.43-22.96,3.14-34.35,2.5-16.62,6.38-32.9,11.96-48.75,8.26-23.42,18.84-45.72,33.01-66.18,16.03-23.14,35.13-43.38,57.69-60.3,17.38-13.03,36.23-23.35,56.47-31.17,16.53-6.38,33.5-11.08,51.12-13.19,9.66-1.16,19.36-2.03,29.04-3.04.55-.06,1.08-.17,1.63-.26,5.43,0,10.85,0,16.28,0,2.2.22,4.39.48,6.59.64,12.68.93,25.12,3.2,37.4,6.43,14.8,3.88,29.08,9.19,42.97,15.6,15.92,7.36,30.96,16.18,44.96,26.76,12.67,9.57,24.01,20.53,34.43,32.5,18.38,21.12,33.73,44.18,45.25,69.75,6.54,14.51,11.69,29.51,15.52,44.94,4.18,16.85,6.71,33.96,7.85,51.28.15,2.31.37,4.61.56,6.91v25.91Zm-246.36,235.41c13.44.28,25.02-.56,36.49-2.62,18.22-3.28,35.72-8.89,52.46-16.79,31.67-14.93,59.09-35.47,81.8-62.21,19.12-22.51,34.14-47.44,44.48-75.15,7.71-20.67,12.92-41.96,15.41-63.87,2.72-23.96,1.86-47.87-1.97-71.65-2.63-16.35-6.72-32.34-12.05-48.05-4.77-14.07-11.53-27.18-18.51-40.17-3.78-7.04-8.29-13.74-12.94-20.26-9.88-13.84-20.8-26.83-33.25-38.48-15.46-14.45-32.72-26.32-51.42-36.17-24.39-12.85-50.17-21.15-77.61-24.2-21-2.34-41.88-1.46-62.64,2.39-15.36,2.85-30.42,6.83-44.95,12.65-18.78,7.52-36.01,17.7-51.93,30.13-11.71,9.15-22.44,19.36-32.61,30.18-18.3,19.47-32.72,41.46-43.28,65.99-6.75,15.68-12.12,31.82-16.21,48.4-3.66,14.87-6.08,29.92-6.84,45.21-.94,19.09.58,38.05,3.53,56.91,2.17,13.85,5.3,27.47,9.67,40.79,4.04,12.33,9.25,24.15,15.14,35.7,9.06,17.76,19.55,34.61,32.78,49.57,21.71,24.57,46.78,44.95,76.22,59.7,18.23,9.13,37.43,15.33,57.51,18.76,14.05,2.4,28.26,3.04,40.71,3.24Z"/>
  <path d="m208.92,250.42c.47-2.46,1.92-3.98,3.25-5.6,1.33-1.61,2.68-3.24,3.73-5.03.95-1.62.53-2.14-1.17-2.85-.69-.29-1.37-.87-1.79-1.5-5.62-8.49-12.53-15.75-20.91-21.52-2.87-1.97-6.12-3.31-9.84-2.64-1.59.29-2.36-.6-1.93-2.16.3-1.1.82-2.18,1.45-3.14,2.77-4.19,4.33-8.79,5.07-13.73.31-2.07.81-4.12,1.27-6.17.14-.64.41-1.26.68-1.86.81-1.75,2.22-2.88,3.16-2.38,1.47.79,1.09,2.24.96,3.54-.8,7.71,2.13,14.05,7.27,19.55.87.93,1.82,1.78,2.74,2.65.11.1.3.11.46.16.45-1.29-7.82-34.86-9.39-37.58-1.19,1.64-2.55,3-3.31,4.63-2.23,4.81-4.06,9.81-6.36,14.59-3.37,7.02-7.1,13.87-10.49,20.89-2.81,5.82-5.45,11.72-7.92,17.69-.73,1.75-1.72,2.75-3.42,2.85-4.24.24-8.5.5-12.75.39-4.31-.11-8.61-.64-12.91-1-1.83-.15-2.52-1.18-1.53-2.77.79-1.27,1.94-2.41,3.16-3.3,14.7-10.63,26.4-23.97,35.43-39.63,4.68-8.12,7.77-16.97,11.26-25.64,1.93-4.8,4.36-9.41,6.86-13.95.73-1.33,2.42-2.18,3.75-3.12,1.29-.91,2.39-.4,2.97.91.95,2.17,2.08,4.34,2.56,6.63,2.54,11.94,5.01,23.9,7.3,35.9,2.35,12.27,4.39,24.6,6.73,36.88.53,2.8,1.72,5.47,2.66,8.19.13.37.58.95.79.91.4-.07.93-.44,1.07-.82,1.21-3.31,2.7-6.57,3.42-10,1.97-9.36,1.72-18.92,2.13-28.42.32-7.37.35-14.71-.71-22.03-.66-4.55-2.17-8.64-5.4-12.04-2.05-2.16-4.14-4.36-4.72-7.47-.6-3.25-.46-4.13,3.24-3.23.98.24,1.95.81,2.74,1.46,1.19.98,2.33,2.06,3.29,3.27,2.93,3.68,6.78,5.34,11.38,5.57,2.04.1,4.08.31,6.1.64.82.13,1.71.56,2.32,1.12,1.58,1.44,1.21,3.08-.89,3.43-3.28.54-4.8,2.77-5.44,5.55-1.17,5.1-2.35,10.25-2.88,15.45-.77,7.47-1.13,15-1.36,22.52-.15,5.11.77,10.13,2.77,14.9,2.19,5.22,5.09,7.2,10.73,7.13,3.31-.04,6.62-.33,9.94-.34,3.15,0,6.29.25,9.44.31,5.25.09,11.23,4.87,12.45,10.02.52,2.2.04,2.9-2.14,3.31-6.8,1.27-13.58.51-20.34-.24-9.18-1.02-18.29-.96-27.05,2.23-3.07,1.12-5.85,3.06-8.66,4.8-2.77,1.71-5.67,2.72-8.95,2.45-.7-.06-1.39-.21-2.25-.34Z"/>
  <path d="m329.12,345.37c-.5-2.56.38-4.27,2.05-5.27,2.93-1.76,6.01-3.27,9.08-4.76,3.03-1.47,6.14-2.8,9.23-4.15.87-.38,1.23-.8,1.08-1.87-1.61-11.29-3.52-22.52-7.13-33.38-.69-2.08-1.39-4.21-3.68-5.64-.26,1.29-.52,2.39-.7,3.5-1.05,6.44-2.65,12.9-1.46,19.43.77,4.2,2.41,8.25,3.68,12.36.37,1.21.91,2.38,1.19,3.6.3,1.33-.25,2.13-1.76,2.06-1.66-.08-3.32-.18-4.97-.18-2.37,0-4.76-.04-7.12.17-2.64.23-4.93,1.37-7.05,3.04-1.23.97-2.88,1.47-4.41,1.98-.89.3-1.39-.33-1.45-1.29-.13-1.96.3-3.78,1.49-5.32,1.01-1.31,2.07-2.64,3.34-3.67,2.29-1.85,3.21-4.36,3.66-7.04.88-5.2,2.22-10.21,4.37-15.07,1.8-4.08,2.13-8.57,2.09-13.03-.07-7.26.65-14.38,3.69-21.06.79-1.73,1.94-3.32,3.04-4.89.39-.56,1.05-1.12,1.69-1.28,1.06-.26,2.35-.58,3.26-.19,1.28.55.6,1.91.38,2.97-.75,3.62-.17,7.17.73,10.67,1.96,7.6,3.96,15.2,5.98,22.78.27,1.01.71,1.98,1.17,2.91.17.34.67.77.95.72.41-.07.96-.46,1.08-.83.38-1.2.71-2.45.85-3.7.84-7.42.34-14.81-.44-22.2-.32-3.02-.49-6.07-.5-9.11,0-1.05.45-2.3,1.11-3.12,3.71-4.63,8.85-7.04,14.31-8.87,1.29-.43,1.97.13,1.77,1.5-.2,1.35-.42,2.82-1.09,3.97-3.13,5.37-3.15,11.24-3.39,17.19-.38,9.61-1.19,19.21-1.72,28.82-.35,6.3-.5,12.6-.81,18.9-.08,1.62.72,2.21,2.11,2.58,6.7,1.78,13.25-.96,16.86-7.12,3.48-5.94,2.57-13.66-2.1-18.42-2.24-2.28-4.57-4.52-6.51-7.04-2.86-3.71-3.68-8.23-4.15-12.77-.7-6.72-.29-13.27,3.17-19.31,4.47-7.82,12.27-10.96,20.68-9.94,6.09.74,11.31,6.35,12.26,12.74.26,1.74.2,3.53.31,5.3.06.92-.36,1.33-1.25,1.33-2.88,0-5.76.05-8.63-.03-.37-.01-.99-.66-1.02-1.05-.06-.81.15-1.64.34-2.45.63-2.7-.09-4.95-2.3-6.62-2.27-1.72-4.84-2.13-7.32-.7-5.94,3.43-8.72,8.68-8.58,15.55.11,5.74,2.9,9.92,7.57,12.85,4.73,2.96,9.62,5.66,14.46,8.45,8.59,4.95,12.74,16,8.51,24.36-3.72,7.36-9.86,12.22-18.37,12.7-6.16.35-12.4.13-18.55-.39-10.53-.89-20.33,1.33-29.73,5.89-2.04.99-4.07,2.04-6.21,2.73-1.58.51-3.33.49-5.13.72Z"/>
  <path d="m308.02,223.81c3.53-.27,7.07-.42,10.57-.86,1.43-.18,2.93-.75,4.16-1.52,2.14-1.34,2.01-3.7-.22-4.85-1.71-.88-3.61-1.38-5.37-2.16-1.41-.62-2.83-1.27-4.09-2.14-3.6-2.48-7.09-5.11-10.67-7.62-2.92-2.05-4.33-4.96-4.87-8.36-.99-6.19-.07-12.02,3.57-17.25.37-.53.85-1.05,1.39-1.39,9.77-6.25,20.44-8.54,31.89-6.9,7,1,12.9,4.51,18.22,8.99,2.22,1.87,1.81,3.56-.94,4.37-3.72,1.09-7.54,1.18-11.35.74-1.11-.13-2.28-.62-3.19-1.27-4.65-3.33-9.7-3.11-14.78-1.56-2.17.66-4.36,1.72-6.16,3.08-3.38,2.55-3.64,7-1.26,10.52,2.35,3.47,5.75,4.72,9.62,5.41,5.77,1.03,11.55,2.05,17.26,3.37,7.15,1.65,12.66,5.66,15.97,12.36,2.1,4.25,1.88,9.15-.95,11.62-5.76,5.01-12.3,8.14-20.27,7.33-5.6-.57-11.23-1.25-16.85-1.25-10.02,0-19.7,2-28.57,6.87-2.27,1.25-4.23,3.15-6.12,4.97-1.98,1.9-4.03,2.83-6.74,1.87-.91-.32-1.31-.84-1-1.73.36-1.03.65-2.18,1.31-3.01,3.37-4.31,6.68-8.68,10.34-12.75,4.42-4.91,9.94-7.68,16.79-7.09.77.07,1.55,0,2.32,0,0,.07.01.15.02.22Z"/>
  <path d="m432.67,383.16c-.26,3.08-.28,6.03-.78,8.89-1.37,7.78-7.08,13.43-14.57,14.24-.96.1-1.62.51-1.61,1.52.01,2.39-.81,4.5-1.72,6.67-.76,1.81-1.01,3.84-1.47,5.78-.81,3.46-3.7,5.1-6.56,3.58-.6-.32-1.16-1.18-1.27-1.87-.19-1.18,0-2.42.02-3.64.03-1.87-1.1-3.45-2.86-3.99-1.63-.5-3,.35-2.86,2.15.16,2.18.65,4.36,1.24,6.47.79,2.87,1.79,5.69,2.74,8.52.53,1.57.37,2.83-1.34,3.52-1.72.69-3.43,1.44-5.19,2.02-.88.29-1.52-.13-1.83-1.15-1.23-4.01-3.99-6.8-7.36-9.1-.96-.66-1.85-.76-2.95-.41-2.53.81-3.62-.04-3.03-2.63.51-2.24,1.37-4.43,2.38-6.5.27-.55,1.67-.83,2.51-.76,1.53.12,3.05.51,4.53.95,1.09.33,1.47.07,1.67-1.03.48-2.61.94-5.23,1.66-7.77.97-3.44,3.78-4.76,7-5.24,2.98-.44,5.45.52,7.13,3.15.64,1,1.54,1.89,2.71,1.25,1.2-.65,1.39-1.97.8-3.21-.48-.99-1.03-1.97-1.73-2.82-2.31-2.8-2.72-5.94-1.97-9.37.82-3.76,2.44-7.1,5.02-9.94.66-.73,1.45-1.38,2.29-1.88,3.56-2.1,7.25-.81,8.52,3.12.55,1.7.56,3.58.77,5.38.07.64.01,1.3.01,1.95.16.05.32.1.47.15.27-.8.66-1.59.78-2.42.15-.98-.07-2.01.11-2.98.22-1.18.69-2.32,1.17-3.82-3.17-3.3-4.35-7.66-3.27-12.92-1.83.35-3.41.77-5.01.94-2.25.24-4.52.46-6.76.37-2.36-.09-3.96-1.31-4.11-2.64-.27-2.38.61-3.78,3.24-4.7,4.49-1.57,9.1-2.82,13.5-4.59,4.18-1.69,8.21-3.8,12.21-5.9,1.69-.89,1.58-1.25.22-2.54-.32-.3-.62-.63-.86-1-3.1-4.88-2.92-13.85.36-18.56,1.96-2.81,5.8-4.04,8.29-2.41,2.36,1.55,3.8,3.83,3.88,6.77.05,1.71.02,3.43.04,5.15,0,.46.08.93.12,1.39.2.05.41.1.61.15.53-1.62,1.33-3.2,1.52-4.86.49-4.28.75-8.59,1.01-12.9.14-2.23.5-4.11,2.77-5.37,2.03-1.13,2.29-2.93,1.43-5.88-2.1.18-4.05.84-5.68,2.23-.41.35-.65,1.16-.6,1.72.22,2.37.63,4.72.87,7.08.1.94.33,2.05-1.16,2.31-1.6.29-3.57-.27-3.9-1.35-.5-1.63-.88-3.31-1.23-4.99-.62-2.93-.99-5.96-4.13-7.53-.29-.14-.51-.76-.48-1.15.1-1.86.23-3.72.49-5.57.21-1.51,1.36-2.06,2.54-1.35,4.02,2.42,6.97.51,10.01-1.98,1.18-.96,2.77-1.7,4.27-1.93,3.07-.47,5.3,1.08,5.76,4.15,1.34,9.05.59,17.67-5.99,24.87-.44.48-.6,1.39-.59,2.1.04,4.6.09,9.18-1.34,13.64-1.71,5.33-5.25,8.09-10.87,8.38-1.38.07-4.23,2.82-4.1,4.13.06.58.59,1.14.99,1.64,5.71,7.16,2.31,20.39-6.08,23.59-.82.31-1.68.49-2.42.7Zm-1.44-18.78c-.19.1-.75.38-1.3.66.35.49.73.95,1.03,1.47.4.66.93,1.33,1.05,2.05.12.78-.33,1.65-.24,2.44.09.74.38,1.74.92,2.07.56.34,1.65.24,2.28-.09.66-.35,1.24-1.13,1.53-1.85,1.32-3.25-1.19-6.71-5.28-6.75Zm13.02-26.59c-.51-.7-.98-1.8-1.81-2.35-.53-.36-1.78-.19-2.39.22-1.49.99-2.13,4.08-1.16,5.56.44.67,1.44,1.31,2.2,1.32.75,0,1.78-.62,2.2-1.28.53-.83.57-1.97.95-3.46Zm-30.37,54.85c.51,1.47.48,2.99,2.05,3.24,1.54.24,2-1.22,2.3-2.35.39-1.48.59-3.02.71-4.55.05-.59-.27-1.68-.57-1.73-.64-.12-1.71.08-2,.53-.97,1.53-1.68,3.23-2.49,4.86Z"/>
  <path d="m130.25,293.74c-.59-.72-1.29-1.33-1.66-2.09-.66-1.36-1.32-2.79-1.59-4.26-.22-1.21.94-1.79,1.98-1.08.91.61,1.7,1.41,2.54,2.12,1.4,1.18,2.92,1.98,5.19,1.57-.16-2.45-.13-4.94-.52-7.36-.68-4.25-1.58-8.46-2.46-12.67-.11-.52-.63-.95-.97-1.42-.43.39-1.03.7-1.27,1.19-1.41,2.88-2.78,5.77-4.08,8.7-4.01,9.05-8.42,17.88-13.46,26.43-3.14,5.32-5.64,11.01-8.35,16.57-.64,1.3-1.23,1.91-2.85,1.5-4.02-1.01-7.88.33-11.75,1.17-1.62.35-3.23.74-4.87.96-1.72.22-2.34-.43-2.28-2.16.07-2.12,1.44-3.49,2.79-4.91,7.68-8.07,14.84-16.55,20.64-26.09,4.94-8.13,9.87-16.26,14.68-24.46,2.97-5.07,5.31-10.45,6.68-16.2.32-1.34,1.06-1.71,2.21-1.61,3.25.28,6.49.61,9.74.92,1.05.1,1.31.73,1.38,1.69.48,6.12,1.06,12.24,1.51,18.37.87,11.88,4.09,22.91,11.32,32.6,2.01,2.7,3.7,5.64,5.41,8.55,1.81,3.09,4.57,5.21,7.13,7.57,2.33,2.15,4.11,4.59,4.3,7.95.08,1.37-.38,1.85-1.69,2.01-3.21.39-6.29-.06-9.3-1.16-1.3-.47-2.53-1.14-3.84-1.57-2.4-.8-4.18-1.95-3.63-4.92.08-.42-.2-.99-.46-1.38-3.95-5.78-8.55-10.9-15.01-13.93-5.7-2.67-10.48-1.33-13.99,3.88-1.39,2.06-2.56,4.27-3.64,6.51-.78,1.62-2.1,1.08-3.28,1.14-1.27.06-1.11-1.02-1.27-1.77-1.84-8.47.95-14.68,8.74-19.26,1.89-1.11,3.9-2.01,6.01-3.08Z"/>
  <path d="m62.15,376.3c-.12,1.51.69,2.65,1.81,3.47,2.45,1.79,4.89,3.47,8.28,3.02,3.23-.43,6.4.11,9.3,2.42.54-1.89.94-3.58,1.51-5.22.6-1.72,1.19-3.47,2.11-5.02.61-1.03,1.65-2.01,2.73-2.51,2.6-1.2,4.15-.36,4.15,2.43,0,4.13-.28,8.27-.65,12.39-.47,5.34-1.18,10.65-1.7,15.98-.13,1.31.17,2.65.15,3.97-.02,1.42-.24,2.83-1.93,3.28-1.29.34-2.61-.48-3.25-2.2-.35-.95-.89-.91-1.66-.84-3.88.34-7.66.09-10.96-2.27-4.4-3.15-5.96-7.84-6.06-12.88-.06-3.05-.93-4.53-3.65-6.13-6.61-3.89-10.07-10.1-9.78-17.83.14-3.77-.76-6.58-3.84-8.71-.63-.44-1.18-1-1.74-1.54-4.14-3.98-4.76-7.22-1.84-12.21,1.29-2.2,3.26-3.99,4.95-5.95.38-.44.85-.81,1.28-1.21-1.79-1.36-3.58-2.48-5.08-3.91-4.28-4.09-6.56-9-5.44-15.06.22-1.18.64-2.35,1.11-3.46.36-.86.2-1.53-.61-1.73-2.12-.52-4.28-.94-6.44-1.23-.42-.06-.96.63-1.4,1.02-1.43,1.26-2.76,1.26-4.09-.05-2.51-2.48-3.58-8.93-1.85-12.01.27-.48,1.3-.95,1.81-.81,2.45.65,4.85,1.5,7.26,2.3,3.04,1,6.06,2.06,9.11,3.02,1.74.55,3.23.07,4.49-1.3,1.2-1.29,2.46-2.56,3.8-3.7,2.37-2.02,4.31-1.96,6.09.05,2.4,2.71,2.69,5.81.4,7.61-1.93,1.52-2.64,3.11-2.09,5.55.45,1.99-.12,2.44-2.19,2.48-.11,0-.23.02-.33,0-3.24-.76-4.69,1.27-5.91,3.73-1.32,2.66-1.18,5.14.86,7.36,1.01,1.09,2.09,2.13,3.21,3.11,2.12,1.83,4.48,2.38,7.25,1.54,4.79-1.46,5.74-.77,8.3,3.6,2.12,3.63,1.99,3.33-1.68,4.89-3.35,1.42-6.93,2.32-9.68,4.93-2.52,2.4-4.34,5.18-4.72,8.71-.11,1.01.02,2.12.36,3.07.83,2.35,1.3,2.47,3.52,1.34,5.41-2.76,11.66-1.08,15.68,4.3,2.48,3.32,3.49,7.1,3.08,11.25-.17,1.68-1.01,2.87-2.44,3.72-3.15,1.86-6.81,1.42-9.41-1.19-.61-.61-1.09-1.35-1.62-2.03-.19.16-.38.31-.57.47Zm20.96,17.19c-2.01-.4-3.94-.74-5.84-1.17-1.26-.28-2.54-.41-3.31.76-.83,1.27-.53,2.66.29,3.89,1.21,1.81,3.78,2.62,5.72,1.85,2.06-.82,3.4-3.26,3.14-5.33Zm-15.09-19.7c1.55.01,2.69-1.17,2.63-2.74-.08-2.06-2.09-4.33-4.12-4.63-1.54-.23-2.76.66-2.97,2.16-.34,2.4,2.05,5.19,4.46,5.2Z"/>
  <path d="m326.82,285.97c.1,7.89-.99,15.58-3.99,22.91-2.59,6.32-6.88,11.21-13.01,14.3-10.6,5.34-21.78.95-26.04-10.13-2.04-5.31-2.52-10.85-2.41-16.47.15-7.2,1.57-14.13,4.14-20.87,2.83-7.43,8.17-11.9,15.63-14.1,4.45-1.31,8.93-2.03,13.57-.85,3.66.93,6.31,3.06,8.17,6.28,3,5.2,3.78,10.92,3.94,16.79.02.72,0,1.44,0,2.16Zm-14.94,1.78c.14-.03.28-.06.42-.09-.84-4.43-1.33-8.97-2.6-13.27-1.3-4.39-6.34-5.78-10.21-3.25-2.62,1.71-3.95,4.42-5.12,7.18-2.81,6.63-4.2,13.62-4.63,20.77-.18,3.01-.15,6.11.4,9.05.66,3.49,2.53,6.54,6.34,7.35,3.8.81,6.39-1.45,8.57-4.21,5.46-6.92,7.06-14.97,6.82-23.53Z"/>
  <path d="m174.7,295.02c-.02,4.43.76,8.67,2.8,12.66,3.35,6.59,11.8,7.77,16.52,6.11,2.74-.96,4.64-2.98,5.63-5.74,1.5-4.2-.31-8.08-4.69-9.46-2.93-.93-6.04-1.29-9.05-2-.78-.18-2.03-.64-2.1-1.11-.13-.92.16-2.15.74-2.87.64-.79,1.75-1.48,2.76-1.64,5.19-.87,13.66.27,17.55,7.01,2.06,3.56,1.95,7.19.96,10.91-1.01,3.78-2.78,7.21-5.35,10.2-2.89,3.36-6.61,5.19-10.94,5.61-8.78.85-16.64-1.07-22.45-8.29-2.89-3.59-4.66-7.77-5.8-12.2-2.3-8.93-2.36-17.84,1.6-26.3,3.37-7.21,8.19-13.48,15.08-17.69,4.78-2.92,10.12-4.19,15.75-2.7,1.22.32,2.61,1.02,3.34,1.99,2,2.62,3.71,5.46,5.5,8.24.26.4.33.94.42,1.43.43,2.51-.32,3.33-2.83,3.4-1.85.05-3.19-.34-4.45-2.01-2.42-3.22-6.45-3.69-10.14-1.5-3.7,2.19-5.79,5.71-7.43,9.51-2.26,5.24-3.37,10.74-3.4,16.45Z"/>
  <path d="m340.56,72.57c.22,2.33,1.38,3.54,3.11,3.85,1.7.3,3.51.2,5.25.08,1.01-.07,1.78-.08,1.92,1.12.25,2.16,1.79,2.83,3.62,3.1,2.04.3,3.35,1.09,3.68,3.44.36,2.55,2.12,4.32,4.34,5.56,1.31.73,2.14.35,2.3-1.17.19-1.81.36-3.66.2-5.46-.07-.81-.83-1.96-1.55-2.24-1.82-.71-3.79-1.17-5.73-1.44-2.16-.3-3.24-.85-3.19-2.16.06-1.46,1.37-2.45,3.44-2.32,1.65.1,3.28.49,4.91.75,2.03.32,3.95.14,5.73-1.03,1.52-1,3.15-.98,4.72-.08,1,.57,2,1.2,2.89,1.92,1.83,1.49,1.65,3.59-.59,4.37-2.11.73-2.45,2.04-2.33,3.93.22,3.69.34,7.38.52,11.37.73-.33,1.26-.53,1.75-.8,4.14-2.19,8.43-3.58,13.22-2.73,4.28.76,6.45,2.87,6.97,7.18.16,1.32.64,2.09,2.03,2.39,1.81.4,4.01,4.56,3.43,6.33-.13.38-.47.75-.8,1-.79.6-1.63,1.13-2.45,1.7-2.82,1.94-3.62,4.55-2.22,7.64,1.4,3.09,1.9,3.47-2.43,4.21-3.06.52-5.25-.75-6.17-3.71-.51-1.65-.62-3.47-.64-5.21-.02-1.22-.35-1.72-1.55-2.04-2.34-.63-4.71-1.28-6.91-2.28-4.04-1.82-6.46-4.93-6.54-9.55-.01-.75-.12-1.24-1.04-1.31-6.98-.55-12.34-4.15-16.92-9.15-.82-.9-1.72-1.75-2.4-2.74-.5-.72-.94-1.63-.97-2.47-.04-1.19-.54-1.49-1.58-1.6-3.83-.37-7.52-1.26-10.98-3-6.38-3.2-9.05-9.49-6.6-15.8,1.37-3.52,3.74-5.71,7.81-5.82,5.05-.13,9.7.69,13.37,4.51.38.4.74.83,1.05,1.28,1.73,2.53,2.06,5.97.78,7.85-1.37,2-5.13,3.14-8.02,2.33-1.73-.49-3.42-1.14-5.41-1.82Zm47.81,33.71c1.56-.24,2.06-1.07,1.41-2.41-2.29-4.69-4.25-5.29-8.64-2.63-1.36.82-1.46,1.74-.02,2.39,2.34,1.05,4.82,1.79,7.24,2.66Zm-44.08-37.49c2.27-.03,3.35-1.45,2.63-3.43-.68-1.86-4.15-3.05-5.8-1.97-.92.6-1.34,1.44-.97,2.55.48,1.42,2.59,2.87,4.13,2.85Z"/>
  <path d="m209.32,296.18c-.13-10.33-.21-19.63,1.37-28.84.11-.65.19-1.32.38-1.95.3-1,.08-2.54,1.52-2.64,1.72-.11,3.48.14,5.19.41.26.04.52,1.05.52,1.61-.05,7.02-.15,14.04-.24,21.06-.09,7.85-.21,15.69-.23,23.54,0,1.13.37,2.29.68,3.4.84,3.05,3.15,3.96,5.86,2.28,2.93-1.82,4.52-4.66,5.58-7.8,2.24-6.65,2.48-13.58,2.58-20.5.1-6.64.02-13.28.03-19.92,0-2.47.62-3.11,3.03-3.26,2.12-.13,3.34.81,3.55,3.02.49,5.18,1.14,10.36,1.25,15.55.16,8.01.13,16.03-.21,24.04-.23,5.36-1.56,10.57-3.59,15.62-1.57,3.9-4.42,5.83-8.35,5.93-3.4.09-6.82-.32-10.21-.73-3.04-.36-5.12-2.39-6.02-5.1-1.02-3.05-1.74-6.29-2-9.5-.47-5.73-.5-11.49-.68-16.21Z"/>
  <path d="m150.56,454.32c-.09,2.82-.58,5.51-2.6,7.68-.69.74-.53,1.32.22,1.94,2.27,1.86,3.39,1.87,5.64-.05,3.3-2.81,7.01-4.61,11.45-4.56,3.35.03,5.91,1.5,7.95,4.11.48.62,1.3,1.01,2.02,1.39.88.45,1.88.69,2.73,1.18,2.67,1.54,3.15,3.4,1.66,6.11-.59,1.06-1.28,2.07-1.82,3.16-.95,1.9-.61,3.41,1.07,4.68.88.67,1.88,1.16,2.8,1.78,1.63,1.1,1.73,2.94.06,3.88-2.83,1.6-5.89,1.91-8.97.87-1.94-.66-2.52-2.53-3.1-4.26-1.14-3.39-1.11-3.37-4.7-3.2-3.65.17-7.31.3-10.84-.94-3.02-1.07-4.79-3.24-4.91-6.42-.07-1.78-.94-2.54-2.4-2.82-3.69-.71-7.38-1.49-11.11-1.89-1.93-.21-2.6-1.1-2.78-2.74-.09-.82-.05-1.65-.04-2.48.02-1.05.49-1.46,1.61-1.62,1.5-.22,3.05-.63,4.4-1.3,1.94-.97,2.52-2.91,1.72-4.62-.66-1.4-2.17-2.03-4.17-1.13-2.76,1.23-5.33,2.87-8,4.29-1.55.82-3.12,1.64-4.75,2.3-1.02.42-1.9.08-2.5-.99-.37-.65-.93-1.22-1.5-1.73-2.26-2.04-1.97-4.15.56-5.72,3.58-2.22,5.03-5.89,5.96-9.76.18-.73-.39-1.68-.71-2.49-.7-1.76-.24-2.94,1.58-2.85,2.56.13,5.1.73,7.61,1.29.39.09.78,1.02.83,1.59.12,1.49.05,2.99.06,4.48.02,1.96.5,2.42,2.5,2.37,1.33-.04,2.65-.16,3.98-.16,4.93.02,8.56,3.73,8.52,8.66Zm12.69,18.17c1.33-.15,2.78-.18,4.16-.51,1.72-.41,2.3-1.77,1.06-2.91-1.3-1.2-3.12-1.83-4.76-2.63-.22-.11-.74.2-1.01.44-1.29,1.11-2.58,2.23-3.8,3.42-.87.85-.61,1.58.63,1.8,1.19.21,2.4.26,3.71.38Z"/>
  <path d="m415.99,143.19c1.5,2.51,3.06,4.07,6.18,3.62,3.92-.56,7.86-.35,11.25,2.21,2.31,1.74,3.57,4.01,3.7,6.9.09,1.96.29,3.71,1.5,5.57,1.02,1.57.69,4.04.85,6.12.02.21-.71.64-1.12.69-6.44.76-7.99,5.39-7.58,9.89.11,1.17-.24,1.56-1.34,1.72-3.08.44-5.88-1.49-6.62-4.7-.49-2.12-.21-4.17.77-6.13,1.3-2.61,1.04-3.18-1.58-4.35-4.43-1.99-7.97-4.89-8.82-9.99-.23-1.41.04-2.97.39-4.38.25-1,.26-1.81-.53-2.36-2.48-1.73-5.03-3.35-7.52-5.05-.74-.5-1.9-1.05-1.99-1.7-.24-1.71-.06-3.5.12-5.24.03-.28.9-.68,1.37-.67,1.2.03,2.42.16,3.58.43,1.56.36,3.13.42,4.06-.98.57-.86.92-2.23.65-3.18-.21-.74-1.44-1.52-2.33-1.68-3.36-.6-6.56.53-9.77,1.34-1.29.32-2.58.63-3.84,1.06-1.21.41-2.07.2-2.43-1.1-.48-1.74-.93-3.5-1.34-5.26-.21-.91.28-1.4,1.13-1.72,3.7-1.38,6.12-4.27,8.41-7.28.33-.43.41-1.12.44-1.7.03-.6-.14-1.21-.21-1.81-.43-3.43.64-4.41,3.89-3.11,2.07.83,3.95,2.17,5.82,3.43.41.28.63,1.19.57,1.77-.2,1.86-.44,3.74-.9,5.55-.35,1.39,0,1.81,1.38,2.04,5.31.89,8.54,4.08,9.16,8.85.6,4.64-1.57,8.54-5.86,10.48-.44.2-.87.43-1.46.73Zm15.19,15.24c-.64-1.48-.89-3.22-1.89-4.14-1.67-1.54-3.98-1.84-6.24-1.35-1.79.39-2.15,1.55-.88,2.86,1.54,1.58,3.13,3.13,4.88,4.45.63.48,1.89.49,2.71.23.57-.18.87-1.2,1.42-2.05Z"/>
  <path d="m349.16,469.09c2.21-1.94,4.05-3.57,5.9-5.19,1.24-1.09,2.41-2.29,3.76-3.23.58-.41,1.76-.66,2.25-.34.59.39,1.07,1.5.98,2.22-.14,1.09-.58,2.31-1.29,3.11-2.19,2.48-4.58,4.78-6.89,7.16-1.74,1.79-3.62,3.52-3.06,6.41.01.05,0,.11-.01.16-.8,2.36-2.93,3.58-4.74,4.83-1.53,1.06-3.57.3-5.13-.8-1.99-1.42-2.51-3.45-1.26-5.5,1.01-1.65,1.01-3.23.27-4.88-1.52-3.38-3.09-6.73-4.61-10.1-.41-.9-.68-1.87-1.13-2.75-.25-.5-.78-1.29-1.08-1.25-.54.08-1.24.59-1.45,1.09-.5,1.21-.81,2.51-1.11,3.8-.62,2.68-1.5,3.13-3.93,1.84-2.42-1.28-3.15-3.52-2.96-6.02.22-2.99,1.1-5.75,3.67-7.67.68-.51.93-1.07.44-1.98-1.51-2.83-.67-5.31,2.35-6.33,1.49-.51,3.22-.31,4.85-.46.83-.07,1.77.02,2.46-.35,2.93-1.55,5.74-3.33,8.68-4.87,3.44-1.81,7.11-2.58,10.89-1.28,3.92,1.34,5.95,5.04,5.58,9.7-.37,4.62-1.8,8.75-5.43,11.89-.32.28-.62.67-.77,1.06-.94,2.54-2.92,3.08-5.32,2.88-.61-.05-1.21-.08-1.82-.09-2.15-.03-2.33.14-1.74,2.28.38,1.37.94,2.69,1.65,4.67Zm-1-23.28c-1.94.06-4.15,1.19-6.03,2.86-.44.39-.55,1.55-.33,2.19.47,1.4,1.21,2.72,1.91,4.04.91,1.7,1.9,1.78,2.91.15.98-1.58,2.22-2.42,4.14-2.54,2.13-.14,3.04-1.68,2.48-3.76-.53-2.02-1.83-2.88-5.08-2.93Z"/>
  <path d="m277.43,197.35c1.26,0,2.32-.08,3.36.02,1.47.14,2.07,1.06,1.24,2.26-.62.9-1.75,1.84-2.77,2.01-2.27.36-4.62.37-6.93.29-1.7-.06-2.32.61-2.52,2.22-.71,5.8,3,10.35,8.81,10.45,3.42.06,6.87-.49,10.27-.27,5.73.37,4.93,1.39,4.06,5.44-.75,3.51-1.24,3.91-4.39,3.06-5.1-1.37-10.21-1.05-15.32-.34-5.58.78-11.14,1.76-16.71,2.6-2.25.34-2.74-.22-2.18-2.42.23-.9.52-1.84,1.02-2.61,2.55-3.91,3.59-8.3,4.18-12.82,1.03-7.88,1.4-15.76-.3-23.6-.51-2.36-1.34-4.55-3.22-6.23-.5-.45-.84-1.18-1.02-1.85-.41-1.52.17-2.29,1.7-2.08,3.94.54,7.88,1.1,11.78,1.89,5.97,1.2,11.9,2.6,18.05,2.04,1.7-.16,3.39-.49,5.06-.85,1.09-.23,1.64,0,1.83,1.18.94,5.75.48,5.36-4.32,5.17-3.86-.15-7.7-.77-11.56-1.02-1.29-.08-2.64.22-3.92.52-2.03.48-3.37,1.81-4.1,3.76-.89,2.36-.94,4.77-.22,7.17.69,2.29,1.98,3.93,4.69,3.86,1.21-.03,2.43.1,3.43.15Z"/>
  <path d="m289.71,333.57c-5.99-.46-11.8.1-17.41,2.45-1.4.58-2.99.79-4.52.95-1.89.19-2.3-.36-1.88-2.18.16-.7.35-1.42.68-2.04,1.17-2.24,1.44-4.62,1.33-7.09-.29-6.58-.77-13.16-.78-19.74-.01-7.8.42-15.6.6-23.4.11-5.04.15-10.07.15-15.11,0-1.28.28-1.85,1.74-1.9,4.64-.16,9.03-1.47,13.37-3.05.69-.25,2.04-.41,2.2-.13.46.84.59,1.92.62,2.92.02.47-.39,1.04-.74,1.44-3.47,3.93-4.82,8.79-5.92,13.71-2.39,10.64-3.23,21.44-2.89,32.33.07,2.14.42,4.31.94,6.39,1.31,5.3,4.47,7.52,10.67,7.77,3.37.13,6.75.18,10.11.39,3.62.23,4.48,2.07,2.36,5.06-.44.61-1.4,1.15-2.15,1.19-2.81.14-5.64.06-8.46.06Z"/>
  <path d="m253.05,469.46c4.46-1.34,6.62,1.12,8.46,4.72,1.37,2.68,3.34,5.07,5.05,7.58.75,1.1,1.73,1.61,3.12,1.38,2.78-.45,5.57-.83,8.36-1.21,1.06-.15,2.24-.3,2.6,1.07.36,1.36.31,2.81-1.28,3.35-1.66.56-3.41.86-5.14,1.2-2.05.4-2.31.88-1.17,2.59,1.21,1.82,2.81,2.93,5.12,2.74.99-.08,2-.16,2.98-.04.62.08,1.57.41,1.71.84.18.58-.05,1.6-.49,2.01-.92.84-2.03,1.58-3.18,2.05-2.5,1.01-5.06,1.92-7.65,2.68-2.58.75-4.78.11-6.34-2.29-1.21-1.85-2.55-3.61-3.78-5.45-1.14-1.69-2.6-2.35-4.66-1.99-3.59.63-7.22,1.04-10.81,1.68-.65.12-1.31.76-1.76,1.33-1.93,2.42-3.66,5-5.69,7.33-2.17,2.51-4.71,4.62-8.36,4.31-1.08-.09-2.18-.38-3.18-.79-1.69-.7-1.88-1.23-.77-2.72.87-1.18,2.08-2.11,3.16-3.13.72-.68,1.55-1.26,2.21-1.99,1.26-1.39,1.76-2.92.57-4.65-.22-.31-.36-.69-.5-1.04-1.09-2.69-.49-3.99,2.35-4.22,2.84-.23,4.7-1.52,6.02-3.96,2.07-3.84,4.29-7.61,6.33-11.46.78-1.47,1.76-2.11,3.41-1.94,1.1.11,2.21.02,3.32.02Zm3.73,15.45c-.86-2.98-1.78-5.31-4.2-7.22-1.27,2.16-2.47,4.11-3.57,6.11-.39.71-.49,1.68.74,1.63,2.26-.08,4.52-.33,7.02-.53Z"/>
  <path d="m247.3,286.62c-.34-3.95-.56-8.21-1.12-12.42-.42-3.16-1.8-5.96-4-8.41-.88-.98-1.29-2.5-1.6-3.85-.28-1.26.47-2.17,1.84-2.19,2.04-.03,4.09-.07,6.12.13,3.25.31,6.47.85,9.6-.69,1.13-.55,1.72.36,1.69,1.34-.04,1.25-.11,2.62-.62,3.72-3.61,7.79-3.89,16.14-4.41,24.49-.49,7.72-1.25,15.42-1.8,23.13-.15,2.08-.11,4.2.08,6.28.24,2.59,1.79,4.36,4.16,5.35,2.04.84,4.17,1.48,6.18,2.37,2.37,1.05,3.35,5.48,1.69,7.5-.32.39-1.1.73-1.55.62-.87-.22-1.9-.57-2.44-1.22-3-3.65-7.09-4.02-11.31-3.87-3.37.13-6.52.98-9.1,3.45-.66.64-1.86.72-2.81,1.06-.13-.94-.56-1.95-.33-2.79.59-2.17,1.27-4.37,2.27-6.37,3.62-7.29,5.33-15.09,6.26-23.08.55-4.72.79-9.47,1.2-14.53Z"/>
  <path d="m278.8,60.34c-3.59,1.05-5.29-.94-6.52-3.92-.97-2.35-2.16-4.6-3.17-6.93-.4-.93-.92-1.45-1.97-1.38-3.9.26-7.81.45-11.7.82-.63.06-1.36.75-1.76,1.33-1.82,2.63-3.46,5.39-5.32,8-2.57,3.62-5.75,4.78-9.62,3.9-1.33-.3-1.55-1.07-1.06-2.02.7-1.36,1.62-2.61,2.47-3.89.52-.78,1.16-1.49,1.65-2.28,1.19-1.95,1.53-3.92.49-6.13-1.19-2.52-.66-3.77,2.07-4,3.34-.27,4.81-2.31,6.2-4.88,1.97-3.64,4.07-7.21,6.27-10.71.43-.69,1.58-1.29,2.41-1.3,3.08-.06,6.18.05,9.25.32.75.07,1.73.83,2.09,1.53,1.76,3.44,3.34,6.97,4.99,10.47.14.3.32.59.42.9.88,2.59,2.51,3.77,5.42,3.75,2.33-.02,4.68.73,6.99,1.27.93.21,2.06.56,1.9,1.9-.16,1.28-1.12,1.91-2.28,2.05-.86.1-1.76,0-2.62-.15-.81-.14-1.58-.54-2.39-.65-.55-.07-1.33-.03-1.65.31-.31.33-.41,1.23-.17,1.64,1.4,2.41,2.55,5.11,5.99,5.33.61.04,1.52.73,1.65,1.28.13.54-.4,1.45-.9,1.89-1.9,1.67-4.36,1.31-6.64,1.55-.82.09-1.66.01-2.49.01Zm-15.75-26.92c-1.86,2.8-3.53,5.34-5.41,8.18,3.17.82,5.78.71,8.4.34.29-.04.75-.59.73-.86-.28-2.86-1.25-5.42-3.71-7.66Z"/>
  <path d="m141.47,72.28c.1-7.09,5.69-14.68,14.39-14.98,3.74-.13,5.76,1.81,6,5.52.21,3.2-.86,5.74-3.49,7.6-1.04.74-2.1,1.44-3.1,2.22-.3.23-.44.66-.65,1,.44.12.93.4,1.31.31.62-.16,1.3-.45,1.74-.9,1.86-1.88,3.7-3.78,5.4-5.79.67-.79,1.12-1.07,2.18-.8.8.21,1.82,0,2.63-.32.96-.37,1.79-1.09,2.71-1.58,1.47-.78,2.98-.74,4.45.05,1.76.94,5.21-.01,6.1-1.86.26-.53.12-1.64-.28-2.03-1.21-1.19-2.57-2.27-4-3.17-1.52-.96-2.77-.7-3.93.71-.84,1.02-1.48,2.2-2.22,3.29-.76,1.13-1.79,2.53-3.12,1.75-.85-.5-1.47-2.31-1.3-3.39.22-1.35,1.28-2.62,2.13-3.81,1.06-1.48,2.45-2.74,3.37-4.28.65-1.08.72-2.5,1.15-3.74.27-.77.53-1.84,1.12-2.13,1.71-.85,3.54-1.54,5.39-1.98,1.52-.36,2.22.47,1.65,1.87-.67,1.65-.15,2.91,1.03,3.83,2.17,1.69,4.39,3.36,6.78,4.71,3.66,2.07,4.44,8.41.88,10.55-4.17,2.5-8.36,5-13.27,5.81-2.56.42-5.11.91-7.72.19-.32-.09-1.01.36-1.19.72-3.29,6.57-8.92,9.7-15.92,10.32-6.55.59-10.17-3.06-10.21-9.67Zm7.92-4.23c1.52-.45,3.09-.74,4.51-1.38,1.26-.57,1.7-2.06,1.08-3.1-.38-.64-1.91-.99-2.82-.84-2.16.36-3.32,2.63-2.77,5.32Z"/>
  <path d="m55.03,154.36c.4-6.94,1.73-14.84,6.13-21.93,2.03-3.26,4.55-5.84,8.51-6.58,1.63-.31,2.44.15,2.68,1.82.24,1.75.32,3.52.34,5.29,0,.4-.45,1.07-.81,1.18-4.1,1.18-6.19,4.2-7.09,8.06-1.54,6.56-1.4,13.06,1.47,19.31.43.94,1.01,1.86,1.67,2.66,1.36,1.66,3.15,1.71,4.25-.09,1.14-1.86,2.14-3.9,2.73-5.99,1.64-5.77,2.41-11.69,2.27-17.71-.02-.81-.21-1.63-.42-2.42-.29-1.1-1.2-2.5-.01-3.17.93-.52,2.79-.57,3.57.04,2.36,1.83,4.86,3.8,4.69,7.34-.46,9.54-2.1,18.8-6.83,27.26-1.45,2.59-3.18,5.04-6.07,6.13-4.07,1.55-7.47-.03-10.43-2.81-4.96-4.66-6.96-10.49-6.65-18.39Z"/>
  <path d="m93.26,106.63c-.21-4.18,1.28-6.11,5.13-6.25,2.93-.11,4.7-1.08,5.29-4.14.34-1.76,1.33-3.39,1.9-5.12.37-1.13,1.12-1.54,2.19-1.66.82-.09,1.66-.41,2.46-.31,2.12.25,2.94-1.1,3.68-2.66.69-1.45,1.42-2.87,2.12-4.31.57-1.15,1.52-1.5,2.62-.98,2.04.96,4.02,2.04,6.03,3.07,1.13.58,2.26,1.15,3.39,1.72,1.05.53,1.76.14,1.97-.94.56-2.92.85-5.89-.96-8.49-1.38-1.97-1.67-4.05-1.19-6.3.09-.44.54-1.04.92-1.13,1.93-.43,3.89-.78,5.85-1.01.42-.05,1.05.42,1.36.83.94,1.26,1.66,2.7,2.67,3.9,1.52,1.8,1.72,3.45.57,5.5-.35.63-.3,1.48-.44,2.23-.88,4.65-1.56,9.36-2.72,13.94-.78,3.07-1.87,3.63-4.91,2.89-2.82-.68-5.52-1.87-8.25-2.88-1.4-.52-2.72-1.24-4.13-1.71-2.18-.73-3.5-.02-4.24,2.15-.16.47-.25.96-.38,1.44q-.69,2.71-3.45,3.09c-2.02.28-2.63,1.23-1.57,2.99.9,1.5,2.17,2.77,3.29,4.14.21.25.47.46.69.71,2.79,3.17,2.61,6.07-.56,8.91-1.53,1.37-2.87,1.38-4.34-.07-.86-.85-1.64-1.79-2.43-2.71-3.31-3.85-6.76-7.42-12.56-6.83Z"/>
  <path d="m306.09,50.4c-.84,1.24-1.88,2.39-2.46,3.75-.96,2.22-1.66,4.56-2.39,6.88-.46,1.44-1.28,2.1-2.82,1.81-1.46-.27-2.94-.54-4.42-.66-1.51-.12-1.86-.96-1.61-2.22.56-2.81,1.19-5.61,1.74-8.43.55-2.8.44-5.44-1.42-7.88-.63-.83-1.22-2.55-.81-3.11.57-.77,2.1-1.14,3.23-1.15,3.13-.03,5.35,1.75,6.69,4.4.67,1.33,1.43,1.49,2.71,1.37,2.42-.23,4.86-.43,7.27-.32,1.03.05,2.27.68,2.97,1.46,1.89,2.07,5.69,2.28,7.17-.06.99-1.56,2.11-1.88,3.71-1.57,1.68.33,3.4.5,5.03.96,1.95.55,2.25,1.7,1.09,3.35-2.02,2.87-2.01,2.85,1.3,4.2.84.34,1.98.57,1.74,1.84-.22,1.19-1.17,1.73-2.32,1.74-1.1.01-2.22-.01-3.3-.22-1.35-.26-2.19.2-2.88,1.33-1.71,2.82-2.69,5.86-2.45,9.15.13,1.8-.54,2.58-2.22,2.61-1.76.03-3.53,0-5.29-.03-1.01-.02-1.56-.61-1.43-1.6.29-2.17.58-4.35,1.03-6.49.33-1.56,1.04-3.04,1.34-4.61.17-.92.05-2-.27-2.9-.54-1.54-1.56-1.74-3.1-1.27-1.4.42-2.9.56-4.36.75-2.08.27-2.16-1.64-2.85-2.88l-.62-.21Z"/>
  <path d="m120.98,433.63c-.03.55.02,1.12-.09,1.65-.44,2.15-.34,4.1,1.41,5.77.41.39.5,1.57.21,2.08-.29.5-1.41,1.02-1.9.83-2.71-1.02-5.29-.42-7.94.18-2.8.64-5.35-.17-7.75-1.6-3.32-1.99-6.14-4.51-8.39-7.66-2.74-3.85-3.26-8.02-1.62-12.43.73-1.97,2.21-3.32,4.16-4.04,3.97-1.47,7.71-1.32,11.29,1.35,1.59,1.18,3.56,1.88,5.42,2.65,1.81.76,3.09,2.08,3.7,3.82.83,2.37,1.29,4.86,1.91,7.3-.13.03-.27.07-.4.1Zm-9.74-1.21c-.21-1.05-.22-2.9-.99-4.34-.42-.78-2.13-.87-3.27-1.26-2.86-.98-4.85.75-4.36,3.77.4,2.52,2.5,4.73,5.08,5.33,2.43.57,3.55-.34,3.55-3.51Z"/>
  <path d="m212.27,54.69c-1.45,1.28-2.76,2.53-4.17,3.67-2.56,2.06-5.27,3.86-8.68,4.16-4.12.37-5.96-1.35-6.05-5.5-.09-4.3.98-8.32,2.8-12.15,2.14-4.5,5.36-6.08,10.6-5.19,1.96.34,3.81.92,5.79-.03.68-.33,1.64-.18,2.46-.13,2.41.16,2.65.45,2.6,2.84-.12,5.17,2.13,8.37,7.05,9.86,1.01.31,1.13.77.93,1.68-.54,2.46-2.62,4.14-5.14,4.22-3.24.1-5.89-1.17-8.19-3.44Zm-3.02-8.71c-.92.16-1.67.36-2.43.4-2.93.18-5.3,2.26-5.65,5.2-.08.67.15,1.82.57,2.02.58.27,1.67.07,2.21-.35,1.65-1.29,3.16-2.76,4.69-4.19.89-.83,1.15-1.83.61-3.08Z"/>
  <path d="m380.9,443.33c.59-.33,1.28-.56,1.74-1.01,1.92-1.87,3.11-4.17,3.46-6.82.17-1.28.83-1.71,1.98-1.71,2.96,0,4.39,1.29,3.8,4.14-.46,2.26-1.41,4.55-2.66,6.49-2.37,3.7-5.74,6.41-9.83,8.11-5.57,2.32-10.72.06-12.9-5.58-2.89-7.46,2.25-17.62,9.89-19.55.64-.16,1.31-.26,1.96-.27,4.23-.09,6.06,1.64,6.43,5.85.24,2.68-.33,5.02-2.22,7.02-.78.82-1.4,1.79-2.09,2.68.15.21.29.43.44.64Zm-2.42-7.04c-.64-1.1-1.08-2.61-1.63-2.65-.89-.07-2.18.6-2.71,1.37-.75,1.07-1.12,2.49-1.34,3.82-.11.63.36,1.83.82,1.98.74.24,2.06.13,2.49-.38.98-1.16,1.56-2.65,2.38-4.14Z"/>
  <path d="m95.58,125.37c.52-.54,1.25-.98,1.53-1.62.95-2.17,1.86-4.36,2.54-6.63.58-1.96,2.15-1.61,3.47-1.79,1.46-.2,1.63,1,1.86,2.04.71,3.18.25,6.2-1.49,8.92-1.21,1.9-2.63,3.68-4.05,5.44-2.9,3.6-6.66,4.49-11.02,3.32-.21-.06-.42-.16-.64-.17-4.12-.3-5.78-3.06-6.41-6.65-.87-4.88-.44-9.58,2.44-13.83,2.47-3.64,5.93-4.89,10.2-4.4,1.69.2,2.55,1.12,2.94,2.65.92,3.63.4,7.12-1.06,10.51-.26.59-.55,1.17-.83,1.76.17.15.35.3.52.45Zm-8.02-2.28c1.82-1.23,3.87-2.17,4.32-4.55.13-.67.01-1.8-.4-2.05-.64-.38-1.69-.42-2.45-.21-2.12.6-3.54,4.76-1.47,6.81Z"/>
  <path d="m288.68,496.58c-1.46.43-1.83-.91-2.26-2.13-2.49-7.11-3.62-14.47-3.73-21.98-.05-3.04.15-6.08.27-9.12.02-.46.15-1.17.45-1.32,2.21-1.08,4.41-2.34,6.76-2.97,2.06-.55,2.94.5,2.07,2.52-1.16,2.7-1.03,5.44-.79,8.14.46,4.99,1.06,9.99,1.95,14.92.53,2.95,1.03,2.95,3.87,2.25.75-.19,1.83-.06,2.39.38.32.26.11,1.56-.22,2.19-2.2,4.19-5.47,6.9-10.76,7.1Z"/>
  <path d="m306.36,491.05c-1.87.39-2.99-.57-3.51-2.44-.61-2.23-1.22-4.47-1.85-6.7-.22-.8-.5-1.58-.76-2.37-.42-1.28-1.23-1.98-2.65-2.1-1.18-.1-2.48-.17-2.56-1.94-.15-3.06.14-3.83,2.26-4.38,1.24-.32,1.63-.92,1.64-2.19.01-3.53,3.15-6.7,6.73-6.88,1.2-.06,1.93.37,1.92,1.83-.02,3.67.41,3.92,3.78,2.57,2.43-.98,3.53-.15,3.14,2.45-.34,2.25-1.96,3.51-3.82,4.49-1.91.99-1.99,1.12-1.18,3.16.78,1.95,1.56,3.9,2.44,5.8.33.71.9,1.36,1.49,1.9.95.87,1.32,2.36.43,3.18-2.08,1.91-4.22,3.82-7.51,3.62Z"/>
  <path d="m88.03,423.21c-2.11-.31-4.98-2.18-5.56-4.09-.2-.65-.04-1.77.41-2.2,1.86-1.79,3.94-3.35,5.85-5.1,1.29-1.18,2.46-2.5,3.64-3.79.56-.61.96-1.36,1.56-1.93,1.66-1.59,2.9-1.59,4.59-.05.86.78,1.7,1.58,2.53,2.39,1.41,1.38,1.63,2.46.31,3.86-2.92,3.09-5.89,6.14-9.04,8.98-1.11,1-2.83,1.31-4.28,1.93Z"/>
  <path d="m197.93,483.25c.06-.76.05-1.32.15-1.86.39-2.31.97-2.71,3.21-2.21,3.34.74,6.71,1.39,10.02,2.28,2.36.63,3.23,4.31,1.58,6.18-.24.27-.8.45-1.15.38-4.11-.81-8.21-1.66-12.3-2.54-1.27-.27-1.93-1.04-1.5-2.22Z"/>
  <path d="m420.96,343.24c-2.58-.05-3.1-.73-1.82-3.01.88-1.56,2.27-2.82,3.38-4.25,1.15-1.47,2.06-3.18,3.42-4.39.95-.85,2.47-1.36,3.77-1.45.98-.07,2.24.56,2.97,1.28.36.36.08,1.84-.38,2.47-2,2.71-4.15,5.31-6.3,7.91-.35.43-.91.83-1.43.94-1.18.26-2.4.34-3.61.49Z"/>
  <path d="m105.59,408.13c-2.91,0-4.99-1.82-5.28-3.91-.2-1.43.2-2.5,1.74-2.89.43-.11.85-.24,1.27-.35,4.11-1.05,6.09-.05,7.8,3.9.43,1,.19,1.8-.86,2.1-1.79.51-3.62.89-4.68,1.15Z"/>
</svg>